<svg xmlns="http://www.w3.org/2000/svg" xmlns:xlink="http://www.w3.org/1999/xlink" width="95" zoomAndPan="magnify" viewBox="0 0 71.25 71.25" height="95" preserveAspectRatio="xMidYMid meet" version="1.0"><defs><clipPath id="791e2da6df"><path d="M 7 0 L 53 0 L 53 68 L 7 68 Z M 7 0 " clip-rule="nonzero"/></clipPath><clipPath id="3220dcc871"><path d="M 24.082031 -8.039062 L 72.976562 11.609375 L 46.40625 77.722656 L -2.488281 58.070312 Z M 24.082031 -8.039062 " clip-rule="nonzero"/></clipPath><clipPath id="0d185b7a07"><path d="M 24.082031 -8.039062 L 72.976562 11.609375 L 46.40625 77.722656 L -2.488281 58.070312 Z M 24.082031 -8.039062 " clip-rule="nonzero"/></clipPath><clipPath id="7e39192366"><path d="M 24.082031 -8.039062 L 72.976562 11.609375 L 46.40625 77.722656 L -2.488281 58.070312 Z M 24.082031 -8.039062 " clip-rule="nonzero"/></clipPath><clipPath id="4b957db1c0"><path d="M 24.078125 -8.035156 L 53.320312 3.714844 L 26.757812 69.820312 L -2.484375 58.066406 Z M 24.078125 -8.035156 " clip-rule="nonzero"/></clipPath><clipPath id="20a057e529"><path d="M 26 6 L 64 6 L 64 70 L 26 70 Z M 26 6 " clip-rule="nonzero"/></clipPath><clipPath id="170f48e8b7"><path d="M 24.082031 -8.039062 L 72.976562 11.609375 L 46.40625 77.722656 L -2.488281 58.070312 Z M 24.082031 -8.039062 " clip-rule="nonzero"/></clipPath><clipPath id="fb7b2e423a"><path d="M 24.082031 -8.039062 L 72.976562 11.609375 L 46.40625 77.722656 L -2.488281 58.070312 Z M 24.082031 -8.039062 " clip-rule="nonzero"/></clipPath><clipPath id="6ab0bf5aa7"><path d="M 24.082031 -8.039062 L 72.976562 11.609375 L 46.40625 77.722656 L -2.488281 58.070312 Z M 24.082031 -8.039062 " clip-rule="nonzero"/></clipPath></defs><g clip-path="url(#791e2da6df)"><g clip-path="url(#3220dcc871)"><g clip-path="url(#0d185b7a07)"><g clip-path="url(#7e39192366)"><g clip-path="url(#4b957db1c0)"><path fill="#000000" d="M 25.5625 64.25 C 24.917969 65.34375 24.0625 66.300781 23.058594 67.082031 C 23.050781 67.085938 23.046875 67.089844 23.039062 67.09375 C 22.3125 67.65625 21.355469 67.761719 20.480469 67.273438 C 9.003906 60.878906 4.0625 41.773438 10.996094 24.527344 C 18.339844 6.246094 33.886719 -3.058594 49.222656 2.085938 C 50.425781 2.488281 51.515625 3.148438 52.558594 3.832031 C 53.070312 4.171875 53.050781 4.863281 52.53125 5.125 C 41.292969 10.710938 33.761719 16.640625 30.265625 27.675781 C 29.011719 31.625 28.472656 36.941406 28.359375 42.167969 C 28.226562 47.078125 30.109375 56.546875 25.5625 64.25 " fill-opacity="1" fill-rule="nonzero"/></g></g></g></g></g><g clip-path="url(#20a057e529)"><g clip-path="url(#170f48e8b7)"><g clip-path="url(#fb7b2e423a)"><g clip-path="url(#6ab0bf5aa7)"><path fill="#000000" d="M 59.664062 44.734375 C 53.359375 60.417969 40.253906 70.414062 28.367188 69.601562 C 26.835938 69.496094 26.015625 67.761719 26.886719 66.507812 C 28.398438 64.335938 29.734375 62.023438 30.640625 59.515625 C 35.371094 46.433594 31.050781 39.953125 33.773438 31.199219 C 36.304688 23.050781 40.183594 16.042969 50.441406 8.710938 C 51.558594 7.914062 52.761719 7.242188 54.027344 6.714844 C 54.699219 6.246094 55.679688 6.386719 56.261719 7.023438 C 63.761719 15.246094 65.484375 30.25 59.664062 44.734375 " fill-opacity="1" fill-rule="nonzero"/></g></g></g></g></svg>